<svg xmlns="http://www.w3.org/2000/svg" width="120" height="40" viewBox="0 0 120 40">
    <path fill="#1A1A1A" d="M27.5,0h-15C5.6,0,0,5.6,0,12.5v15C0,34.4,5.6,40,12.5,40h15C34.4,40,40,34.4,40,27.5v-15
        C40,5.6,34.4,0,27.5,0z M30,27.5c0,1.4-1.1,2.5-2.5,2.5h-15c-1.4,0-2.5-1.1-2.5-2.5v-15c0-1.4,1.1-2.5,2.5-2.5h15
        c1.4,0,2.5,1.1,2.5,2.5V27.5z"/>
    <path fill="#1A1A1A" d="M50,10v20h5V10H50z"/>
    <path fill="#1A1A1A" d="M65,10c-5.5,0-10,4.5-10,10s4.5,10,10,10s10-4.5,10-10S70.5,10,65,10z M65,25c-2.8,0-5-2.2-5-5
        s2.2-5,5-5s5,2.2,5,5S67.8,25,65,25z"/>
    <path fill="#1A1A1A" d="M90,10c-5.5,0-10,4.5-10,10s4.5,10,10,10s10-4.5,10-10S95.5,10,90,10z M90,25c-2.8,0-5-2.2-5-5
        s2.2-5,5-5s5,2.2,5,5S92.8,25,90,25z"/>
    <path fill="#1A1A1A" d="M115,10c-5.5,0-10,4.5-10,10s4.5,10,10,10s10-4.5,10-10S120.5,10,115,10z M115,25c-2.8,0-5-2.2-5-5
        s2.2-5,5-5s5,2.2,5,5S117.8,25,115,25z"/>
</svg> 